<svg width="48" height="48" viewBox="0 0 48 48" xmlns="http://www.w3.org/2000/svg">
  <defs>
    <linearGradient id="bg" x1="0" y1="0" x2="1" y2="1">
      <stop offset="0%" stop-color="#6366F1"/>
      <stop offset="50%" stop-color="#7C5CF5"/>
      <stop offset="100%" stop-color="#22D3EE"/>
    </linearGradient>
    <linearGradient id="gloss" x1="0" y1="0" x2="0" y2="1">
      <stop offset="0%" stop-color="white" stop-opacity="0.35"/>
      <stop offset="55%" stop-color="white" stop-opacity="0"/>
    </linearGradient>
    <radialGradient id="dot" cx="0.5" cy="0.5" r="0.5">
      <stop offset="0%" stop-color="#34D399"/>
      <stop offset="100%" stop-color="#10B981"/>
    </radialGradient>
  </defs>
  <rect width="48" height="48" rx="12" fill="url(#bg)"/>
  <rect width="48" height="48" rx="12" fill="url(#gloss)"/>
  <g fill="none" stroke="white" stroke-opacity="0.55" stroke-width="1.2">
    <rect x="7" y="14" width="10" height="4" rx="1.2"/>
    <rect x="19" y="14" width="10" height="4" rx="1.2"/>
    <rect x="31" y="14" width="10" height="4" rx="1.2"/>
  </g>
  <g fill="white" fill-opacity="0.95">
    <rect x="7" y="22" width="10" height="4" rx="1.2"/>
    <rect x="19" y="22" width="10" height="4" rx="1.2"/>
    <rect x="31" y="22" width="10" height="4" rx="1.2"/>
  </g>
  <g>
    <rect x="7" y="30" width="10" height="4" rx="1.2" fill="white" fill-opacity="0.95"/>
    <rect x="19" y="30" width="10" height="4" rx="1.2" fill="none" stroke="white" stroke-opacity="0.55" stroke-width="1.2"/>
    <rect x="31" y="30" width="10" height="4" rx="1.2" fill="white" fill-opacity="0.95"/>
  </g>
  <circle cx="38.5" cy="9.5" r="3" fill="url(#dot)"/>
  <circle cx="38.5" cy="9.5" r="3" fill="white" fill-opacity="0.15"/>
</svg>
